<svg width="1440" height="600" viewBox="0 0 1440 600" fill="none" xmlns="http://www.w3.org/2000/svg">
  <rect width="1440" height="600" fill="#F8F5FF"/>
  <path d="M0 0L1440 0L1440 600L0 600L0 0Z" fill="url(#paint0_linear)"/>
  <g opacity="0.4">
    <path d="M1376.5 219.5C1376.5 230.546 1367.55 239.5 1356.5 239.5C1345.45 239.5 1336.5 230.546 1336.5 219.5C1336.5 208.454 1345.45 199.5 1356.5 199.5C1367.55 199.5 1376.5 208.454 1376.5 219.5Z" stroke="#6A2C70"/>
    <path d="M1246.5 459.5C1246.5 470.546 1237.55 479.5 1226.5 479.5C1215.45 479.5 1206.5 470.546 1206.5 459.5C1206.5 448.454 1215.45 439.5 1226.5 439.5C1237.55 439.5 1246.5 448.454 1246.5 459.5Z" stroke="#E84A5F"/>
    <path d="M146.5 339.5C146.5 350.546 137.546 359.5 126.5 359.5C115.454 359.5 106.5 350.546 106.5 339.5C106.5 328.454 115.454 319.5 126.5 319.5C137.546 319.5 146.5 328.454 146.5 339.5Z" stroke="#2A9D8F"/>
    <path d="M306.5 99.5C306.5 110.546 297.546 119.5 286.5 119.5C275.454 119.5 266.5 110.546 266.5 99.5C266.5 88.4543 275.454 79.5 286.5 79.5C297.546 79.5 306.5 88.4543 306.5 99.5Z" stroke="#F9C74F"/>
    <path d="M726.5 539.5C726.5 550.546 717.546 559.5 706.5 559.5C695.454 559.5 686.5 550.546 686.5 539.5C686.5 528.454 695.454 519.5 706.5 519.5C717.546 519.5 726.5 528.454 726.5 539.5Z" stroke="#6A2C70"/>
    <path d="M1036.5 159.5C1036.5 170.546 1027.55 179.5 1016.5 179.5C1005.45 179.5 996.5 170.546 996.5 159.5C996.5 148.454 1005.45 139.5 1016.5 139.5C1027.55 139.5 1036.5 148.454 1036.5 159.5Z" stroke="#E84A5F"/>
    <path d="M496.5 399.5C496.5 410.546 487.546 419.5 476.5 419.5C465.454 419.5 456.5 410.546 456.5 399.5C456.5 388.454 465.454 379.5 476.5 379.5C487.546 379.5 496.5 388.454 496.5 399.5Z" stroke="#2A9D8F"/>
  </g>
  <defs>
    <linearGradient id="paint0_linear" x1="720" y1="0" x2="720" y2="600" gradientUnits="userSpaceOnUse">
      <stop stop-color="#F8F5FF"/>
      <stop offset="1" stop-color="#F1E4F3"/>
    </linearGradient>
  </defs>
</svg>
