<svg width="200" height="60" viewBox="0 0 200 60" fill="none" xmlns="http://www.w3.org/2000/svg">
  <path d="M20 10L10 20L20 30L30 20L20 10Z" fill="#6A2C70"/>
  <path d="M40 10L30 20L40 30L50 20L40 10Z" fill="#E84A5F"/>
  <path d="M30 20L20 30L30 40L40 30L30 20Z" fill="#2A9D8F"/>
  <path d="M50 20L40 30L50 40L60 30L50 20Z" fill="#F9C74F"/>
  <path d="M70 15H74.5L80 35H76L74.5 30H69.5L68 35H64L70 15ZM73.5 27L72 21L70.5 27H73.5Z" fill="#6A2C70"/>
  <path d="M82 15H86V32H92V35H82V15Z" fill="#6A2C70"/>
  <path d="M94 15H98V35H94V15Z" fill="#6A2C70"/>
  <path d="M110 15H114V35H110L105 23V35H101V15H105L110 27V15Z" fill="#6A2C70"/>
  <path d="M116 15H126V18H120V23H125V26H120V32H126V35H116V15Z" fill="#6A2C70"/>
  <path d="M128 15H132V32H138V35H128V15Z" fill="#6A2C70"/>
  <path d="M140 15H144V35H140V15Z" fill="#6A2C70"/>
  <path d="M150 15H160V18H154V23H159V26H154V35H150V15Z" fill="#6A2C70"/>
  <path d="M162 15H172V18H166V23H171V26H166V32H172V35H162V15Z" fill="#6A2C70"/>
  <path d="M174 15H178V32H184V35H174V15Z" fill="#6A2C70"/>
  <path d="M186 15H196V18H190V23H195V26H190V32H196V35H186V15Z" fill="#6A2C70"/>
  <path d="M198 15H202V35H198V15Z" fill="#6A2C70"/>
</svg>
