<svg xmlns="http://www.w3.org/2000/svg" width="800" height="600" viewBox="0 0 800 600">
  <!-- Background -->
  <rect width="800" height="600" fill="#f8f4ff" />
  
  <!-- Pochampally-inspired pattern background -->
  <g opacity="0.1">
    <rect x="0" y="0" width="100" height="100" fill="#9c27b0" />
    <rect x="100" y="0" width="100" height="100" fill="#673ab7" />
    <rect x="200" y="0" width="100" height="100" fill="#9c27b0" />
    <rect x="300" y="0" width="100" height="100" fill="#673ab7" />
    <rect x="400" y="0" width="100" height="100" fill="#9c27b0" />
    <rect x="500" y="0" width="100" height="100" fill="#673ab7" />
    <rect x="600" y="0" width="100" height="100" fill="#9c27b0" />
    <rect x="700" y="0" width="100" height="100" fill="#673ab7" />
    
    <rect x="0" y="100" width="100" height="100" fill="#673ab7" />
    <rect x="100" y="100" width="100" height="100" fill="#9c27b0" />
    <rect x="200" y="100" width="100" height="100" fill="#673ab7" />
    <rect x="300" y="100" width="100" height="100" fill="#9c27b0" />
    <rect x="400" y="100" width="100" height="100" fill="#673ab7" />
    <rect x="500" y="100" width="100" height="100" fill="#9c27b0" />
    <rect x="600" y="100" width="100" height="100" fill="#673ab7" />
    <rect x="700" y="100" width="100" height="100" fill="#9c27b0" />
    
    <rect x="0" y="200" width="100" height="100" fill="#9c27b0" />
    <rect x="100" y="200" width="100" height="100" fill="#673ab7" />
    <rect x="200" y="200" width="100" height="100" fill="#9c27b0" />
    <rect x="300" y="200" width="100" height="100" fill="#673ab7" />
    <rect x="400" y="200" width="100" height="100" fill="#9c27b0" />
    <rect x="500" y="200" width="100" height="100" fill="#673ab7" />
    <rect x="600" y="200" width="100" height="100" fill="#9c27b0" />
    <rect x="700" y="200" width="100" height="100" fill="#673ab7" />
    
    <rect x="0" y="300" width="100" height="100" fill="#673ab7" />
    <rect x="100" y="300" width="100" height="100" fill="#9c27b0" />
    <rect x="200" y="300" width="100" height="100" fill="#673ab7" />
    <rect x="300" y="300" width="100" height="100" fill="#9c27b0" />
    <rect x="400" y="300" width="100" height="100" fill="#673ab7" />
    <rect x="500" y="300" width="100" height="100" fill="#9c27b0" />
    <rect x="600" y="300" width="100" height="100" fill="#673ab7" />
    <rect x="700" y="300" width="100" height="100" fill="#9c27b0" />
    
    <rect x="0" y="400" width="100" height="100" fill="#9c27b0" />
    <rect x="100" y="400" width="100" height="100" fill="#673ab7" />
    <rect x="200" y="400" width="100" height="100" fill="#9c27b0" />
    <rect x="300" y="400" width="100" height="100" fill="#673ab7" />
    <rect x="400" y="400" width="100" height="100" fill="#9c27b0" />
    <rect x="500" y="400" width="100" height="100" fill="#673ab7" />
    <rect x="600" y="400" width="100" height="100" fill="#9c27b0" />
    <rect x="700" y="400" width="100" height="100" fill="#673ab7" />
    
    <rect x="0" y="500" width="100" height="100" fill="#673ab7" />
    <rect x="100" y="500" width="100" height="100" fill="#9c27b0" />
    <rect x="200" y="500" width="100" height="100" fill="#673ab7" />
    <rect x="300" y="500" width="100" height="100" fill="#9c27b0" />
    <rect x="400" y="500" width="100" height="100" fill="#673ab7" />
    <rect x="500" y="500" width="100" height="100" fill="#9c27b0" />
    <rect x="600" y="500" width="100" height="100" fill="#673ab7" />
    <rect x="700" y="500" width="100" height="100" fill="#9c27b0" />
  </g>
  
  <!-- Silhouette of a woman entrepreneur -->
  <g transform="translate(400, 300)">
    <!-- Head -->
    <circle cx="0" cy="-100" r="50" fill="#9c27b0" />
    
    <!-- Body -->
    <path d="M-40,-50 Q0,20 40,-50 L40,100 L-40,100 Z" fill="#9c27b0" />
    
    <!-- Arms -->
    <path d="M-40,-30 L-90,50 L-70,60 L-30,0 Z" fill="#9c27b0" />
    <path d="M40,-30 L90,50 L70,60 L30,0 Z" fill="#9c27b0" />
    
    <!-- Text -->
    <text x="0" y="150" font-family="Arial" font-size="24" fill="#673ab7" text-anchor="middle">Woman Entrepreneur</text>
    <text x="0" y="180" font-family="Arial" font-size="18" fill="#673ab7" text-anchor="middle">Telangana</text>
  </g>
</svg>
